<?xml version="1.0" encoding="iso-8859-1"?>
<!-- Generator: Adobe Illustrator 17.1.0, SVG Export Plug-In . SVG Version: 6.00 Build 0)  -->
<!DOCTYPE svg PUBLIC "-//W3C//DTD SVG 1.1//EN" "http://www.w3.org/Graphics/SVG/1.1/DTD/svg11.dtd">
<svg xmlns="http://www.w3.org/2000/svg" xmlns:xlink="http://www.w3.org/1999/xlink" version="1.1" id="Capa_1" x="0px" y="0px" viewBox="0 0 465 465" style="enable-background:new 0 0 465 465;" xml:space="preserve" width="512px" height="512px">
<g>
	<path d="M278.521,388.495h-92.043c-4.142,0-7.5,3.357-7.5,7.5s3.358,7.5,7.5,7.5h92.043c4.142,0,7.5-3.357,7.5-7.5   S282.664,388.495,278.521,388.495z" fill="#FFDA44"/>
	<path d="M455.672,307.102L336.504,189.083c-5.3-5.249-14.923-9.207-22.383-9.207h-21.373   c-3.708-29.907-29.262-53.137-60.156-53.137h-36.096c22.692-33.624,19.189-79.785-10.542-109.517   c-1.406-1.406-3.314-2.196-5.303-2.196s-3.897,0.79-5.303,2.196l-50.553,50.553L95.187,38.169c-2.929-2.928-7.678-2.928-10.606,0   c-2.929,2.93-2.929,7.678,0,10.607l29.607,29.606l-50.553,50.553c-2.929,2.93-2.929,7.678,0,10.607   c14.555,14.555,33.387,23.264,53.66,24.995v15.338H17.5c-9.649,0-17.5,7.851-17.5,17.5v188.619c0,9.649,7.851,17.5,17.5,17.5   h16.022c4.142,0,7.5-3.357,7.5-7.5s-3.358-7.5-7.5-7.5H17.5c-1.355,0-2.5-1.145-2.5-2.5V197.376c0-1.355,1.145-2.5,2.5-2.5h296.622   c3.555,0,9.302,2.364,11.828,4.865L445.117,317.76c2.464,2.44,4.883,8.239,4.883,11.708v56.527c0,1.355-1.145,2.5-2.5,2.5h-16.022   c-4.142,0-7.5,3.357-7.5,7.5s3.358,7.5,7.5,7.5H447.5c9.649,0,17.5-7.851,17.5-17.5v-56.527   C465,321.983,460.99,312.367,455.672,307.102z M130.088,83.696c0.003-0.003,0.007-0.006,0.01-0.009s0.006-0.007,0.009-0.01   l50.267-50.267c22.731,28.051,21.057,69.443-5.027,95.526c-13.503,13.504-31.457,20.94-50.553,20.94   c-16.574,0-32.287-5.602-44.977-15.91L130.088,83.696z M132.295,164.538c19.223-1.642,37.139-9.572,51.353-22.798h48.945   c22.609,0,41.42,16.53,45.009,38.137H132.295V164.538z" fill="#FFDA44"/>
	<path d="M355,342.017c-29.764,0-53.979,24.215-53.979,53.979s24.215,53.979,53.979,53.979s53.979-24.215,53.979-53.979   S384.764,342.017,355,342.017z M355,434.974c-21.493,0-38.979-17.485-38.979-38.979s17.486-38.979,38.979-38.979   s38.979,17.485,38.979,38.979S376.493,434.974,355,434.974z" fill="#FFDA44"/>
	<path d="M414.867,311.968H290v-87.092h21.781c4.142,0,7.5-3.357,7.5-7.5s-3.358-7.5-7.5-7.5H289.5c-7.995,0-14.5,6.505-14.5,14.5   v88.092c0,7.995,6.505,14.5,14.5,14.5h125.367c4.142,0,7.5-3.357,7.5-7.5S419.009,311.968,414.867,311.968z" fill="#FFDA44"/>
	<path d="M110,342.017c-29.764,0-53.979,24.215-53.979,53.979S80.236,449.974,110,449.974s53.979-24.215,53.979-53.979   S139.764,342.017,110,342.017z M110,434.974c-21.493,0-38.979-17.485-38.979-38.979S88.507,357.017,110,357.017   s38.979,17.485,38.979,38.979S131.493,434.974,110,434.974z" fill="#FFDA44"/>
</g>
<g>
</g>
<g>
</g>
<g>
</g>
<g>
</g>
<g>
</g>
<g>
</g>
<g>
</g>
<g>
</g>
<g>
</g>
<g>
</g>
<g>
</g>
<g>
</g>
<g>
</g>
<g>
</g>
<g>
</g>
</svg>
